HIERARCHY
ROOT Hips
{
	OFFSET 0.000000 0.000000 0.000000
	CHANNELS 6 Xposition Yposition Zposition Xrotation Yrotation Zrotation
	JOINT LeftUpLeg_virtual
	{
		OFFSET 0.000000 0.000000 0.000000
		CHANNELS 3 Xrotation Yrotation Zrotation
		JOINT LeftUpLeg
		{
			OFFSET 15.427100 -6.655098 0.678600
			CHANNELS 3 Xrotation Yrotation Zrotation
			JOINT LeftLeg
			{
				OFFSET 4.081073 -39.591068 13.024000
				CHANNELS 3 Xrotation Yrotation Zrotation
				JOINT LeftFoot
				{
					OFFSET -4.081074 -37.707932 -15.979700
					CHANNELS 3 Xrotation Yrotation Zrotation
					JOINT LeftToeBase
					{
						OFFSET 5.346399 -15.068900 20.645000
						CHANNELS 3 Xrotation Yrotation Zrotation
						JOINT LeftToe_End
						{
							OFFSET 2.754700 0.931300 11.300900
							CHANNELS 3 Xrotation Yrotation Zrotation
							End Site
							{
								OFFSET 0 0 0
							}
						}
					}
				}
			}
		}
	}
	JOINT RightUpLeg_virtual
	{
		OFFSET 0.000000 0.000000 0.000000
		CHANNELS 3 Xrotation Yrotation Zrotation
		JOINT RightUpLeg
		{
			OFFSET -15.569500 -6.655098 0.678600
			CHANNELS 3 Xrotation Yrotation Zrotation
			JOINT RightLeg
			{
				OFFSET -4.081825 -39.591045 13.023800
				CHANNELS 3 Xrotation Yrotation Zrotation
				JOINT RightFoot
				{
					OFFSET 4.081824 -37.707954 -15.979600
					CHANNELS 3 Xrotation Yrotation Zrotation
					JOINT RightToeBase
					{
						OFFSET -5.346400 -15.068900 20.645000
						CHANNELS 3 Xrotation Yrotation Zrotation
						JOINT RightToe_End
						{
							OFFSET -2.754700 0.931300 11.300900
							CHANNELS 3 Xrotation Yrotation Zrotation
							End Site
							{
								OFFSET 0 0 0
							}
						}
					}
				}
			}
		}
	}
	JOINT Spine_virtual
	{
		OFFSET 0.000000 0.000000 0.000000
		CHANNELS 3 Xrotation Yrotation Zrotation
		JOINT Spine
		{
			OFFSET -0.279200 12.230698 -2.892100
			CHANNELS 3 Xrotation Yrotation Zrotation
			JOINT Spine1
			{
				OFFSET -0.232667 10.192268 -1.242267
				CHANNELS 3 Xrotation Yrotation Zrotation
				JOINT Spine1_split
				{
					OFFSET -0.232667 10.192268 -1.242267
					CHANNELS 3 Xrotation Yrotation Zrotation
					JOINT Spine2
					{
						OFFSET -0.232667 10.192268 -1.242267
						CHANNELS 3 Xrotation Yrotation Zrotation
						JOINT Neck_virtual
						{
							OFFSET 0.000000 0.000000 0.000000
							CHANNELS 3 Xrotation Yrotation Zrotation
							JOINT Neck
							{
								OFFSET -0.418800 17.814194 8.416900
								CHANNELS 3 Xrotation Yrotation Zrotation
								JOINT Head
								{
									OFFSET 0.000000 7.031097 3.806800
									CHANNELS 3 Xrotation Yrotation Zrotation
									JOINT HeadTop_End
									{
										OFFSET 0.000000 24.646606 12.978600
										CHANNELS 3 Xrotation Yrotation Zrotation
										End Site
										{
											OFFSET 0 0 0
										}
									}
								}
							}
						}
						JOINT LeftShoulder_virtual
						{
							OFFSET 0.000000 0.000000 0.000000
							CHANNELS 3 Xrotation Yrotation Zrotation
							JOINT LeftShoulder
							{
								OFFSET 8.476499 7.247704 -3.868750
								CHANNELS 3 Xrotation Yrotation Zrotation
								JOINT LeftShoulder_split
								{
									OFFSET 8.476499 7.247704 -3.868750
									CHANNELS 3 Xrotation Yrotation Zrotation
									JOINT LeftArm
									{
										OFFSET 9.308998 -2.777710 0.208600
										CHANNELS 3 Xrotation Yrotation Zrotation
										JOINT LeftForeArm
										{
											OFFSET 29.972298 0.000000 0.000000
											CHANNELS 3 Xrotation Yrotation Zrotation
											JOINT LeftHand
											{
												OFFSET 26.026505 0.000000 0.000000
												CHANNELS 3 Xrotation Yrotation Zrotation
												End Site
												{
													OFFSET 0 0 0
												}
											}
										}
									}
								}
							}
						}
						JOINT RightShoulder_virtual
						{
							OFFSET 0.000000 0.000000 0.000000
							CHANNELS 3 Xrotation Yrotation Zrotation
							JOINT RightShoulder
							{
								OFFSET -7.570500 7.247704 -3.868750
								CHANNELS 3 Xrotation Yrotation Zrotation
								JOINT RightShoulder_split
								{
									OFFSET -7.570500 7.247704 -3.868750
									CHANNELS 3 Xrotation Yrotation Zrotation
									JOINT RightArm
									{
										OFFSET -9.308998 -2.777710 0.208500
										CHANNELS 3 Xrotation Yrotation Zrotation
										JOINT RightForeArm
										{
											OFFSET -29.972300 0.000000 0.000000
											CHANNELS 3 Xrotation Yrotation Zrotation
											JOINT RightHand
											{
												OFFSET -26.026505 0.000000 0.000000
												CHANNELS 3 Xrotation Yrotation Zrotation
												End Site
												{
													OFFSET 0 0 0
												}
											}
										}
									}
								}
							}
						}
					}
				}
			}
		}
	}
}
MOTION
Frames: 6
Frame Time: 0.03333333
-2.370995 94.085526 -3.847649 0.000000 0.000000 0.000000 1.176359 6.391166 6.296828 -9.001902 5.991010 1.605642 16.166651 3.631237 -0.367849 -5.909819 1.490852 -6.230096 -2.513185 0.000003 0.000000 0.000000 0.000000 0.000000 1.176359 6.391166 6.296828 -11.918424 -11.934976 -14.293949 24.077544 0.084470 -1.743029 -13.322827 -8.622207 7.431055 -2.518105 -0.000012 0.000000 0.000000 0.000000 0.000000 1.176359 6.391166 6.296828 8.235345 -0.816573 6.038357 1.991699 -0.360838 1.359549 0.000000 0.000000 0.000000 0.000000 0.000000 0.000000 1.985962 -0.352617 1.364337 1.392013 0.201542 3.879084 -5.265634 -14.205865 -0.762737 0.000000 0.000000 0.000000 1.985962 -0.352617 1.364337 0.629183 -5.254234 -12.915692 0.000000 0.000000 0.000000 5.646136 -4.942456 -42.344550 0.000005 -65.506268 0.000019 0.000000 0.000000 0.000000 1.985962 -0.352617 1.364337 1.638796 18.786244 11.884591 0.000000 0.000000 0.000000 -22.655545 15.906290 61.287595 -179.996057 88.744771 179.996071 0.000000 0.000000 0.000000 
-2.355541 94.077682 -3.747761 0.000000 0.000000 0.000000 1.173507 6.113286 6.281719 -8.830770 6.028896 1.678856 16.185146 3.796921 -0.390361 -6.054146 1.520055 -6.323454 -2.517683 -0.000006 0.000001 0.000000 0.000000 0.000000 1.173507 6.113286 6.281719 -11.746825 -11.353741 -14.179512 24.078357 -0.185601 -1.740137 -13.347281 -8.691534 7.536843 -2.518105 -0.000012 0.000000 0.000000 0.000000 0.000000 1.173507 6.113286 6.281719 8.181350 -1.002844 6.037708 1.977285 -0.412824 1.344541 0.000000 0.000000 0.000000 0.000000 0.000000 0.000000 1.971129 -0.404078 1.350292 1.471615 0.251577 3.770396 -5.997187 -13.685525 -0.924695 0.000000 0.000000 0.000000 1.971129 -0.404078 1.350292 0.635351 -5.283652 -12.880634 0.000000 0.000000 0.000000 5.726504 -4.951278 -42.398628 0.000011 -65.564379 0.000012 0.000000 0.000000 0.000000 1.971129 -0.404078 1.350292 1.688120 19.320705 11.981017 0.000000 0.000000 0.000000 -17.246738 18.683089 60.973126 -179.999308 84.868283 179.999295 0.000000 0.000000 0.000000 
-2.289538 94.064575 -3.647301 0.000000 0.000000 0.000000 1.110632 5.967902 6.271177 -8.624955 6.081818 1.684602 16.206355 3.853121 -0.414025 -6.249802 1.525394 -6.276566 -2.463928 -0.000003 0.000002 0.000000 0.000000 0.000000 1.110632 5.967902 6.271177 -11.450495 -10.747963 -14.119208 24.067420 -0.601088 -1.731203 -13.386419 -8.784799 7.747953 -2.518105 -0.000012 0.000000 0.000000 0.000000 0.000000 1.110632 5.967902 6.271177 8.110413 -1.328487 6.054636 1.966686 -0.503289 1.325314 0.000000 0.000000 0.000000 0.000000 0.000000 0.000000 1.959778 -0.493537 1.332815 1.524710 0.316483 3.633391 -6.840206 -13.129487 -1.161062 0.000000 0.000000 0.000000 1.959778 -0.493537 1.332815 0.638522 -5.362368 -12.762703 0.000000 0.000000 0.000000 5.906808 -5.087488 -42.408819 -0.000005 -65.558621 0.000017 0.000000 0.000000 0.000000 1.959778 -0.493537 1.332815 1.812172 19.996176 11.753376 0.000000 0.000000 0.000000 -12.150125 22.247781 60.206041 -179.999950 81.797423 179.999937 0.000000 0.000000 0.000000 
-2.202003 94.062073 -3.560303 0.000000 0.000000 0.000000 1.035987 5.848451 6.221908 -8.422783 6.138968 1.714067 16.212105 3.882948 -0.439328 -6.432458 1.524591 -6.227684 -2.383015 0.000001 -0.000003 0.000000 0.000000 0.000000 1.035987 5.848451 6.221908 -11.104936 -10.131765 -14.032823 24.001194 -1.062868 -1.720742 -13.387419 -8.879801 7.987134 -2.518105 -0.000010 -0.000000 0.000000 0.000000 0.000000 1.035987 5.848451 6.221908 8.051688 -1.747506 6.051484 1.960707 -0.619252 1.297408 0.000000 0.000000 0.000000 0.000000 0.000000 0.000000 1.952975 -0.608264 1.307199 1.554709 0.385658 3.484318 -7.572361 -12.570903 -1.431678 0.000000 0.000000 0.000000 1.952975 -0.608264 1.307199 0.638615 -5.466736 -12.525828 0.000000 0.000000 0.000000 6.178441 -5.316449 -42.390954 -0.000009 -65.547167 -0.000024 0.000000 0.000000 0.000000 1.952975 -0.608264 1.307199 1.973432 20.822761 11.448873 0.000000 0.000000 0.000000 -7.453073 26.678278 58.483003 -179.999855 79.886330 179.999855 0.000000 0.000000 0.000000 
-2.088918 94.071838 -3.488716 0.000000 0.000000 0.000000 0.886309 5.695478 6.152622 -8.135293 6.203977 1.758317 16.214258 3.956391 -0.458200 -6.613346 1.526088 -6.183726 -2.295773 0.000002 -0.000001 0.000000 0.000000 0.000000 0.886309 5.695478 6.152622 -10.672159 -9.518234 -13.932122 23.881618 -1.505730 -1.710902 -13.343573 -8.968494 8.232562 -2.518105 -0.000009 0.000000 0.000000 0.000000 0.000000 0.886309 5.695478 6.152622 7.998998 -2.179825 6.007180 1.949553 -0.739108 1.258280 0.000000 0.000000 0.000000 0.000000 0.000000 0.000000 1.941192 -0.727062 1.270347 1.601418 0.445809 3.335896 -8.213464 -12.101377 -1.765317 0.000000 0.000000 0.000000 1.941192 -0.727062 1.270347 0.646573 -5.587140 -12.181945 0.000000 0.000000 0.000000 6.521555 -5.578316 -42.384964 -0.000001 -65.581646 0.000001 0.000000 0.000000 0.000000 1.941192 -0.727062 1.270347 2.127738 21.749844 11.226047 0.000000 0.000000 0.000000 -2.955940 31.958226 55.283968 -179.999909 79.162111 179.999937 0.000000 0.000000 0.000000 
-1.937551 94.102051 -3.423943 0.000000 0.000000 0.000000 0.725658 5.328759 6.044507 -7.745359 6.287946 1.831605 16.192750 4.178419 -0.478546 -6.863173 1.543131 -6.130955 -2.198146 0.000000 0.000000 0.000000 0.000000 0.000000 0.725658 5.328759 6.044507 -10.274465 -8.900479 -13.790840 23.688370 -1.764055 -1.708177 -13.207071 -9.023932 8.421780 -2.518105 -0.000013 -0.000000 0.000000 0.000000 0.000000 0.725658 5.328759 6.044507 7.947910 -2.455598 5.877166 1.926870 -0.814443 1.216386 0.000000 0.000000 0.000000 0.000000 0.000000 0.000000 1.918325 -0.802435 1.229826 1.663241 0.476229 3.195924 -8.807585 -11.887716 -2.187533 0.000000 0.000000 0.000000 1.918325 -0.802435 1.229826 0.654076 -5.745024 -11.870236 0.000000 0.000000 0.000000 6.829695 -5.875779 -42.297159 -0.000016 -65.743125 -0.000020 0.000000 0.000000 0.000000 1.918325 -0.802435 1.229826 2.264669 22.787456 11.057737 0.000000 0.000000 0.000000 1.670482 37.648337 50.461158 -179.999937 79.409979 179.999923 0.000000 0.000000 0.000000 
